# AST/ASF file generated using VICON BodyLanguage
# -----------------------------------------------
:version 1.10
:name VICON
:units
  mass 1.0
  length 0.45
  angle deg
:documentation
   .ast/.asf automatically generated from VICON data using
   VICON BodyBuilder and BodyLanguage model FoxedUp or BRILLIANT.MOD
:root
   order TX TY TZ RX RY RZ
   axis XYZ
   position 0 0 0  
   orientation 0 0 0 
:bonedata
  begin
     id 1 
     name lhipjoint
     direction 0.584852 -0.759097 0.285867 
     length 2.43633 
     axis 0 0 0  XYZ
  end
  begin
     id 2 
     name lfemur
     direction 0.34202 -0.939693 0  
     length 7.14704  
     axis 0 0 20  XYZ
    dof rx ry rz
    limits (-160.0 20.0)
           (-70.0 70.0)
           (-60.0 70.0)
  end
  begin
     id 3 
     name ltibia
     direction 0.342022 -0.939692 0   
     length 7.68483   
     axis 0 0 20   XYZ
    dof rx
    limits (-10.0 170.0)
  end
  begin
     id 4 
     name lfoot
     direction 0.0999605 -0.274639 0.956337   
     length 2.40452   
     axis -90 7.62852e-016 20   XYZ
    dof rx rz
    limits (-45.0 90.0)
           (-70.0 20.0)
  end
  begin
     id 5 
     name ltoes
     direction 1.53468e-011 -4.21881e-011 1   
     length 1.19837   
     axis -90 7.62852e-016 20   XYZ
    dof rx
    limits (-90.0 20.0)
  end
  begin
     id 6 
     name rhipjoint
     direction -0.569886 -0.769002 0.289597   
     length 2.40495  
     axis 0 0 0  XYZ 
  end
  begin
     id 7 
     name rfemur
     direction -0.34202 -0.939693 0   
     length 7.45086   
     axis 0 0 -20   XYZ
    dof rx ry rz
    limits (-160.0 20.0)
           (-70.0 70.0)
           (-70.0 60.0)
  end
  begin
     id 8 
     name rtibia
     direction -0.34202 -0.939693 0   
     length 7.76831   
     axis 0 0 -20   XYZ
    dof rx
    limits (-10.0 170.0)
 end
 begin
     id 9 
     name rfoot
     direction -0.0798572 -0.219406 0.97236   
     length 2.35911  
     axis -90 -7.62852e-016 -20   XYZ
    dof rx rz
    limits (-45.0 90.0)
           (-20.0 70.0)
  end
  begin
     id 10 
     name rtoes
     direction -1.53469e-011 -4.21728e-011 1   
     length 1.18261   
     axis -90 -7.62852e-016 -20   XYZ
    dof rx
    limits (-90.0 20.0)
  end
  begin
     id 11 
     name lowerback
     direction 0.0242088 0.999437 0.0232389   
     length 2.1561   
     axis 0 0 0   XYZ
    dof rx ry rz
    limits (-20.0 45.0)
           (-30.0 30.0)
           (-30.0 30.0)
  end
  begin
     id 12 
     name upperback
     direction -0.0356893 0.999013 -0.0264323   
     length 2.14431   
     axis 0 0 0   XYZ
    dof rx ry rz
    limits (-20.0 45.0)
           (-30.0 30.0)
           (-30.0 30.0)
  end
  begin
     id 13 
     name thorax
     direction -0.0472163 0.998194 -0.0371284   
     length 2.16169   
     axis 0 0 0   XYZ
    dof rx ry rz
    limits (-20.0 45.0)
           (-30.0 30.0)
           (-30.0 30.0)
  end
  begin
     id 14 
     name lowerneck
     direction 0.00863244 0.999921 0.00911972   
     length 1.58651   
     axis 0 0 0   XYZ
    dof rx ry rz
    limits (-20.0 45.0)
           (-30.0 30.0)
           (-30.0 30.0)
  end
  begin
     id 15 
     name upperneck
     direction 0.149523 0.979068 -0.138086   
     length 1.57486   
     axis 0 0 0   XYZ
    dof rx ry rz
    limits (-20.0 45.0)
           (-30.0 30.0)
           (-30.0 30.0)
  end
  begin
     id 16
     name head
     direction 0.0445219 0.997708 -0.0509576  
     length 1.6019  
     axis 0 0 0   XYZ
    dof rx ry rz
    limits (-20.0 45.0)
           (-30.0 30.0)
           (-30.0 30.0)
  end
  begin
     id 17 
     name lclavicle
     direction 0.911271 0.381667 -0.154644  
     length 3.80848  
     axis 0 0 0   XYZ
    dof ry rz
    limits (-20.0 10.0)
           (0.0 20.0)
  end
  begin
     id 18 
     name lhumerus
     direction 1 -4.49003e-011 2.1308e-027   
     length 5.19069   
     axis 180 -30 -90   XYZ
    dof rx ry rz
    limits (-60.0 90.0)
           (-90.0 90.0)
           (-90.0 90.0)
  end
  begin
     id 19
     name lradius
     direction 1 -4.48914e-011 4.01554e-027   
     length 3.30016   
     axis 180 -30 -90   XYZ
    dof rx
    limits (-10.0 170.0)
  end
  begin
     id 20
     name lwrist
     direction 1 -4.49003e-011 1.1934e-026   
     length 1.65008   
     axis -8.46377e-015 90 90   XYZ
    dof ry
    limits (-180.0 0.0)
 end
  begin
     id 21 
     name lhand
     direction 1 -4.49034e-011 2.38659e-026   
     length 0.707698   
     axis -1.52313e-014 90 90   XYZ
    dof rx rz
    limits (-90.0 90.0)
           (-45.0 45.0)
  end
  begin
     id 22 
     name lfingers
     direction 1 -4.48691e-011 4.77775e-026   
     length 0.570564   
     axis -3.04623e-014 90 90   XYZ
    dof rx
    limits (0.0 90.0)
  end
  begin
     id 23
     name lthumb
     direction 0.707107 -6.34832e-011 0.707107   
     length 0.819219   
     axis -90 45 -1.62303e-014   XYZ
    dof rx rz
    limits (-45.0 45.0)
           (-45.0 45.0)
  end
  begin
     id 24 
     name rclavicle
     direction -0.815579 0.573708 -0.0754329   
     length 3.54371  
     axis 0 0 0   XYZ 
    dof ry rz
    limits (-10.0 20.0)
           (-20.0 0.0)
  end
  begin
     id 25 
     name rhumerus
     direction -1 -4.48956e-011 3.05351e-028  
     length 5.23924   
     axis 180 30 90   XYZ
    dof rx ry rz
    limits (-90.0 60.0)
           (-90.0 90.0)
           (-90.0 90.0)
  end
  begin
     id 26 
     name rradius
     direction -1 -4.49013e-011 3.53849e-027   
     length 3.32953   
     axis 180 30 90   XYZ
    dof rx
    limits (-10.0 170.0)
  end
  begin
     id 27 
     name rwrist
     direction -1 -4.48901e-011 1.19374e-026   
     length 1.66477   
     axis -8.46377e-015 -90 -90   XYZ
    dof ry
    limits (-180.0 0.0)
  end
  begin
     id 28
     name rhand
     direction -1 -4.48877e-011 2.38764e-026   
     length 0.607414   
     axis -1.52313e-014 -90 -90   XYZ
    dof rx rz
    limits (-90.0 90.0)
           (-45.0 45.0)
  end
  begin
     id 29
     name rfingers
     direction -1 -4.48882e-011 4.77521e-026   
     length 0.489712   
     axis -3.04623e-014 -90 -90   XYZ
    dof rx
    limits (0.0 90.0)
  end
  begin
     id 30
     name rthumb
     direction -0.707107 -6.34974e-011 0.707107   
     length 0.703132   
     axis -90 -45 1.62303e-014   XYZ
    dof rx rz
    limits (-45.0 45.0)
           (-45.0 45.0)
  end
:hierarchy
  begin
    root lhipjoint rhipjoint lowerback
    lhipjoint lfemur
    lfemur ltibia
    ltibia lfoot
    lfoot ltoes
    rhipjoint rfemur
    rfemur rtibia
    rtibia rfoot
    rfoot rtoes
    lowerback upperback
    upperback thorax
    thorax lowerneck lclavicle rclavicle
    lowerneck upperneck
    upperneck head
    lclavicle lhumerus
    lhumerus lradius
    lradius lwrist
    lwrist lhand lthumb
    lhand lfingers
    rclavicle rhumerus
    rhumerus rradius
    rradius rwrist
    rwrist rhand rthumb
    rhand rfingers
  end

#!OML:ASF E:\VariousWalksJay\Project 1\Capture day 1\Session 1\Actor2.ASF
:FULLY-SPECIFIED
:DEGREES
105
root 7.39721 16.9794 9.99694 15.4196 -49.1406 -16.0251
lowerback -6.46188 -0.566768 10.3067
upperback 1.80662 -1.77806 1.98542
thorax 5.31298 -0.588536 -3.8837
lowerneck -8.16433 -6.60292 -7.76604
upperneck 5.90298 -9.18708 13.3531
head 4.09687 -4.16966 4.76555
rclavicle -6.88292e-015 -2.50469e-014
rhumerus -34.5771 19.7105 -81.6143
rradius 23.0678
rwrist 12.283
rhand 2.62484 -6.2284
rfingers 7.12502
rthumb 28.102 -34.143
lclavicle -6.88292e-015 -2.50469e-014
lhumerus -34.4528 -20.112 81.4185
lradius 30.5568
lwrist 2.74821
lhand 2.93552 -6.93381
lfingers 7.12502
lthumb 28.3989 20.9317
rfemur -13.9931 -4.35003 31.8387
rtibia 37.6809
rfoot -25.4061 -9.56547
rtoes -0.648938
lfemur -14.6036 4.92769 -10.1758
ltibia 40.3094
lfoot -27.839 8.64753
ltoes -8.0055
106
root 7.39938 16.9791 9.99258 15.3955 -49.1482 -16.0183
lowerback -6.43133 -0.553535 10.2908
upperback 1.83532 -1.75645 1.97213
thorax 5.32913 -0.576391 -3.88622
lowerneck -8.20283 -6.58258 -7.70917
upperneck 5.93091 -9.16559 13.3381
head 4.10605 -4.15636 4.75219
rclavicle 2.40032e-014 2.82274e-014
rhumerus -34.6061 19.8859 -81.6865
rradius 23.1106
rwrist 12.2049
rhand 2.59162 -6.2584
rfingers 7.12502
rthumb 28.0703 -34.1783
lclavicle 2.40032e-014 2.82274e-014
lhumerus -34.411 -20.3645 81.4002
lradius 30.6598
lwrist 3.00251
lhand 2.83209 -6.98447
lfingers 7.12502
lthumb 28.3001 20.8975
rfemur -13.9973 -4.32227 31.8427
rtibia 37.7
rfoot -25.4047 -9.58945
rtoes -0.649545
lfemur -14.6053 4.93437 -10.173
ltibia 40.3202
lfoot -27.8288 8.6435
ltoes -8.00879
107
root 7.40149 16.9787 9.98814 15.3653 -49.1583 -16.0118
lowerback -6.40178 -0.539851 10.273
upperback 1.87178 -1.73479 1.95828
thorax 5.35416 -0.563604 -3.88836
lowerneck -8.2455 -6.55319 -7.64552
upperneck 5.95789 -9.13239 13.3236
head 4.11414 -4.137 4.73879
rclavicle 4.74598e-015 -1.03368e-014
rhumerus -34.6388 20.0526 -81.7606
rradius 23.1524
rwrist 12.1306
rhand 2.52811 -6.29042
rfingers 7.12502
rthumb 28.0095 -34.2202
lclavicle 4.74598e-015 -1.03368e-014
lhumerus -34.3347 -20.5392 81.351
lradius 30.6994
lwrist 3.34022
lhand 2.57533 -7.04967
lfingers 7.12502
lthumb 28.0547 20.8727
rfemur -13.9939 -4.2934 31.8456
rtibia 37.7198
rfoot -25.4072 -9.60932
rtoes -0.625997
lfemur -14.6001 4.94415 -10.1698
ltibia 40.3329
lfoot -27.8208 8.63776
ltoes -8.01211
108
root 7.4036 16.9783 9.98348 15.3317 -49.1713 -16.0068
lowerback -6.37455 -0.524921 10.2522
upperback 1.91604 -1.71219 1.94489
thorax 5.38908 -0.549744 -3.8884
lowerneck -8.29323 -6.51419 -7.57641
upperneck 5.98491 -9.08679 13.3112
head 4.12164 -4.11116 4.72606
rclavicle 1.08735e-013 3.26007e-014
rhumerus -34.6741 20.2049 -81.8345
rradius 23.1872
rwrist 12.0666
rhand 2.42728 -6.31331
rfingers 7.12502
rthumb 27.9131 -34.2588
lclavicle 1.08735e-013 3.26007e-014
lhumerus -34.2169 -20.6172 81.2705
lradius 30.6477
lwrist 3.77267
lhand 2.16455 -7.13254
lfingers 7.12502
lthumb 27.6619 20.8535
rfemur -13.9858 -4.26222 31.8492
rtibia 37.7405
rfoot -25.4095 -9.63127
rtoes -0.606438
lfemur -14.5902 4.95686 -10.1652
ltibia 40.3472
lfoot -27.8146 8.63013
ltoes -8.01049
109
root 7.40574 16.9777 9.9785 15.297 -49.1851 -16.0055
lowerback -6.3474 -0.510383 10.229
upperback 1.96574 -1.69051 1.93382
thorax 5.42983 -0.536037 -3.88472
lowerneck -8.34471 -6.46321 -7.5037
upperneck 6.01613 -9.02569 13.2992
head 4.12929 -4.07734 4.71408
rclavicle -2.9122e-014 1.43125e-014
rhumerus -34.7159 20.3366 -81.908
rradius 23.2122
rwrist 12.0182
rhand 2.28094 -6.33532
rfingers 7.12502
rthumb 27.7732 -34.3035
lclavicle -2.9122e-014 1.43125e-014
lhumerus -34.0606 -20.5847 81.1622
lradius 30.478
lwrist 4.28327
lhand 1.51787 -7.23987
lfingers 7.12502
lthumb 27.0434 20.8438
rfemur -13.9748 -4.22617 31.8566
rtibia 37.763
rfoot -25.4118 -9.65968
rtoes -0.588002
lfemur -14.5764 4.97299 -10.1564
ltibia 40.3616
lfoot -27.8078 8.61859
ltoes -8.00181
110
root 7.4079 16.9772 9.97342 15.2579 -49.2007 -16.0001
lowerback -6.32291 -0.495802 10.1997
upperback 2.01801 -1.66888 1.92397
thorax 5.47498 -0.522315 -3.87653
lowerneck -8.39869 -6.3987 -7.41768
upperneck 6.0557 -8.94713 13.2736
head 4.13676 -4.03487 4.69709
rclavicle 1.52816e-014 1.19271e-014
rhumerus -34.769 20.4345 -81.9778
rradius 23.2239
rwrist 11.9916
rhand 2.0838 -6.35636
rfingers 7.12502
rthumb 27.5847 -34.3548
lclavicle 1.52816e-014 1.19271e-014
lhumerus -33.8696 -20.4264 81.0295
lradius 30.1627
lwrist 4.81349
lhand 0.517035 -7.39308
lfingers 7.12502
lthumb 26.0855 20.8356
rfemur -13.9632 -4.19149 31.8607
rtibia 37.787
rfoot -25.4147 -9.68519
rtoes -0.562357
lfemur -14.5611 4.99125 -10.1509
ltibia 40.3765
lfoot -27.8008 8.6074
ltoes -7.99462
111
root 7.41012 16.9767 9.96838 15.2081 -49.2216 -15.9833
lowerback -6.299 -0.48085 10.163
upperback 2.07137 -1.64618 1.91285
thorax 5.52185 -0.508191 -3.86539
lowerneck -8.45128 -6.31873 -7.31981
upperneck 6.10457 -8.84868 13.2348
head 4.14359 -3.9827 4.67572
rclavicle -6.71395e-014 3.33958e-014
rhumerus -34.8365 20.4824 -82.0415
rradius 23.2209
rwrist 11.9928
rhand 1.82886 -6.3741
rfingers 7.12502
rthumb 27.3409 -34.4112
lclavicle -6.71395e-014 3.33958e-014
lhumerus -33.6477 -20.1318 80.8738
lradius 29.6759
lwrist 5.27533
lhand -0.864849 -7.61076
lfingers 7.12502
lthumb 24.7617 20.8064
rfemur -13.9502 -4.15614 31.8551
rtibia 37.813
rfoot -25.4166 -9.71095
rtoes -0.539723
lfemur -14.5418 5.00325 -10.1564
ltibia 40.3916
lfoot -27.7956 8.60587
ltoes -7.98987
112
root 7.4126 16.9763 9.96308 15.1659 -49.2427 -15.9742
lowerback -6.27238 -0.467489 10.1321
upperback 2.12186 -1.62575 1.90485
thorax 5.56377 -0.495431 -3.85438
lowerneck -8.50628 -6.21843 -7.20893
upperneck 6.17083 -8.72393 13.1774
head 4.15192 -3.91751 4.6485
rclavicle -5.31252e-014 -2.0276e-014
rhumerus -34.9232 20.4747 -82.1002
rradius 23.2056
rwrist 12.0196
rhand 1.51202 -6.3977
rfingers 7.12502
rthumb 27.0378 -34.4822
lclavicle -5.31252e-014 -2.0276e-014
lhumerus -33.4003 -19.6875 80.6969
lradius 28.9941
lwrist 5.55997
lhand -2.77455 -7.94012
lfingers 7.12502
lthumb 22.9303 20.7163
rfemur -13.9415 -4.11498 31.8562
rtibia 37.8399
rfoot -25.4176 -9.74085
rtoes -0.509169
lfemur -14.5271 5.01061 -10.1571
ltibia 40.4082
lfoot -27.7882 8.60937
ltoes -7.98125
113
root 7.41534 16.9759 9.95774 15.1233 -49.2657 -15.9639
lowerback -6.23927 -0.456474 10.1064
upperback 2.16849 -1.60762 1.89482
thorax 5.59736 -0.484121 -3.84842
lowerneck -8.57197 -6.09491 -7.076
upperneck 6.26552 -8.57048 13.097
head 4.16576 -3.83751 4.61249
rclavicle 3.37437e-014 -9.54166e-015
rhumerus -35.0351 20.4034 -82.1604
rradius 23.1824
rwrist 12.0662
rhand 1.12805 -6.43474
rfingers 7.12502
rthumb 26.6704 -34.5757
lclavicle 3.37437e-014 -9.54166e-015
lhumerus -33.1329 -19.1044 80.5009
lradius 28.1011
lwrist 5.57367
lhand -5.24427 -8.40965
lfingers 7.12502
lthumb 20.5587 20.5217
rfemur -13.9348 -4.071 31.8559
rtibia 37.8676
rfoot -25.4148 -9.77471
rtoes -0.493669
lfemur -14.5141 5.01613 -10.1607
ltibia 40.4268
lfoot -27.7792 8.62016
ltoes -7.98457
114
root 7.41829 16.9755 9.95236 15.0833 -49.2916 -15.9555
lowerback -6.19577 -0.447922 10.088
upperback 2.20869 -1.59148 1.8834
thorax 5.61767 -0.474354 -3.84798
lowerneck -8.65613 -5.94709 -6.92239
upperneck 6.39779 -8.38697 12.9902
head 4.18914 -3.74169 4.56673
rclavicle -6.94007e-014 -3.53837e-014
rhumerus -35.1809 20.2714 -82.2288
rradius 23.1562
rwrist 12.1197
rhand 0.67123 -6.49144
rfingers 7.12502
rthumb 26.2331 -34.6982
lclavicle -6.94007e-014 -3.53837e-014
lhumerus -32.8466 -18.3675 80.2826
lradius 26.9847
lwrist 5.2092
lhand -8.28685 -9.0312
lfingers 7.12502
lthumb 17.6328 20.1892
rfemur -13.9295 -4.02223 31.8563
rtibia 37.8941
rfoot -25.4098 -9.80936
rtoes -0.474349
lfemur -14.5044 5.01492 -10.1658
ltibia 40.4496
lfoot -27.7707 8.64184
ltoes -7.99475
